HIERARCHY
ROOT Hips
{
	OFFSET 0.00000 0.00000 0.00000
	CHANNELS 6 Xposition Yposition Zposition Zrotation Yrotation Xrotation 
	JOINT LHipJoint
	{
		OFFSET 0 0 0
		CHANNELS 3 Zrotation Yrotation Xrotation
		JOINT LeftHip
		{
			OFFSET 1.28858 -1.83292 1.03970
			CHANNELS 3 Zrotation Yrotation Xrotation
			JOINT LeftKnee
			{
				OFFSET 2.47846 -6.80952 0.00000
				CHANNELS 3 Zrotation Yrotation Xrotation
				JOINT LeftAnkle
				{
					OFFSET 2.75274 -7.56311 0.00000
					CHANNELS 3 Zrotation Yrotation Xrotation
					JOINT LeftToe
					{
						OFFSET 0.12848 -0.35301 1.68223
						CHANNELS 3 Zrotation Yrotation Xrotation
						End Site
						{
							OFFSET 0.00000 -0.00000 0.87311
						}
					}
				}
			}
		}
	}
	JOINT RHipJoint
	{
		OFFSET 0 0 0
		CHANNELS 3 Zrotation Yrotation Xrotation
		JOINT RightHip
		{
			OFFSET -1.31183 -1.83292 1.03970
			CHANNELS 3 Zrotation Yrotation Xrotation
			JOINT RightKnee
			{
				OFFSET -2.44740 -6.72417 0.00000
				CHANNELS 3 Zrotation Yrotation Xrotation
				JOINT RightAnkle
				{
					OFFSET -2.67343 -7.34519 0.00000
					CHANNELS 3 Zrotation Yrotation Xrotation
					JOINT RightToe
					{
						OFFSET -0.16914 -0.46471 1.77626
						CHANNELS 3 Zrotation Yrotation Xrotation
						End Site
						{
							OFFSET -0.00000 -0.00000 0.92777
						}
					}
				}
			}
		}
	}
	JOINT lowerback
	{
		OFFSET 0 0 0
		CHANNELS 3 Zrotation Yrotation Xrotation
		JOINT Chest
		{
			OFFSET 0.01249 2.14252 0.03842
			CHANNELS 3 Zrotation Yrotation Xrotation
			JOINT Chest2
			{
				OFFSET -0.02957 2.14199 -0.03751
				CHANNELS 3 Zrotation Yrotation Xrotation
				JOINT lowerneck
				{
					OFFSET 0 0 0
					CHANNELS 3 Zrotation Yrotation Xrotation
					JOINT Neck
					{
						OFFSET -0.01678 1.65709 -0.05476
						CHANNELS 3 Zrotation Yrotation Xrotation
						JOINT Head
						{
							OFFSET 0.07912 1.58331 -0.11843
							CHANNELS 3 Zrotation Yrotation Xrotation
							End Site
							{
								OFFSET 0.03298 1.73940 -0.04271
							}
						}
					}
				}
				JOINT LeftCollar
				{
					OFFSET 0 0 0
					CHANNELS 3 Zrotation Yrotation Xrotation
					JOINT LeftShoulder
					{
						OFFSET 3.39556 1.16496 0.08673
CHANNELS 3 Zrotation Xrotation Yrotation
						JOINT LeftElbow
						{
OFFSET 0 -5.239100 -0.000000
CHANNELS 3 Zrotation Xrotation Yrotation
							JOINT LeftWrist
							{
OFFSET 0 -3.314670 0.000000
CHANNELS 3 Zrotation Xrotation Yrotation
								JOINT lhand
								{
									OFFSET 0 0 0
CHANNELS 3 Zrotation Xrotation Yrotation
									JOINT LFingers
									{
OFFSET 0 -0.965900 0.000000
CHANNELS 3 Zrotation Xrotation Yrotation
										End Site
										{
OFFSET 0 -0.778730 0.000000
										}
									}
								}
								JOINT LThumb
								{
OFFSET 0 0.000000 0.000000
CHANNELS 3 Zrotation Xrotation Yrotation
									End Site
									{
OFFSET 0 -0.790620 0.790620
									}
								}
							}
						}
					}
				}
				JOINT RightCollar
				{
					OFFSET 0 0 0
					CHANNELS 3 Zrotation Yrotation Xrotation
					JOINT RightShoulder
					{
						OFFSET -3.27193 1.31331 0.33940
CHANNELS 3 Zrotation Xrotation Yrotation
						JOINT RightElbow
						{
OFFSET 0 -5.302520 0.000000
CHANNELS 3 Zrotation Xrotation Yrotation
							JOINT RightWrist
							{
OFFSET 0 -3.678750 0.000000
CHANNELS 3 Zrotation Xrotation Yrotation
								JOINT rhand
								{
									OFFSET 0 0 0
CHANNELS 3 Zrotation Xrotation Yrotation
									JOINT RFingers
									{
OFFSET 0 -0.594810 0.000000
CHANNELS 3 Zrotation Xrotation Yrotation
										End Site
										{
OFFSET 0 -0.479550 0.000000
										}
									}
								}
								JOINT RThumb
								{
OFFSET 0 0.000000 0.000000
CHANNELS 3 Zrotation Xrotation Yrotation
									End Site
									{
OFFSET 0 -0.486870 0.486870
									}
								}
							}
						}
					}
				}
			}
		}
	}
}
MOTION
Frames: 6
Frame Time: 0.008333333333333333
9.939828 27.419664 -11.039306 -1.103666 6.102583 6.773821 0.000000 0.000000 0.000000 -8.400338 -15.137392 -13.333383 0.878456 5.974296 16.710126 0.083370 -5.078784 -5.845232 0.352230 3.812958 10.551099 0.000000 0.000000 0.000000 20.966098 -0.875856 -22.594142 -3.571668 -11.566615 34.216684 -1.795902 -0.471804 -25.530850 -0.618442 5.031181 -13.997869 1.994546 -0.014167 5.052395 0.150196 0.084242 1.551140 -0.969812 0.042043 -1.235134 -0.446736 -2.302174 -4.414779 0.262108 -3.103753 15.609698 -0.028769 -1.513441 5.436640 0.000000 0.000000 0.000000 17.421896 0.120665 -34.760745 27.572858 -38.719895 9.855382 13.315207 -11.552168 15.527877 0.000000 0.000000 0.000000 -7.125000 0.000000 0.000000 -9.635313 14.202215 -7.079576 0.000000 0.000000 0.000000 -6.255618 11.162293 21.984196 -18.204462 -28.417499 -4.646540 -6.667973 7.208009 17.373411 0.000000 0.000000 0.000000 7.125000 0.000000 0.000000 20.013653 46.438569 -0.739480
9.968046 27.424645 -10.941247 -0.374281 5.967641 6.852195 0.000000 0.000000 0.000000 -9.302472 -13.265938 -14.960595 1.066828 6.564119 18.431031 -0.014840 -7.284056 -4.776360 0.373288 3.923847 10.862653 0.000000 0.000000 0.000000 20.203755 -0.634463 -23.908016 -3.790064 -11.875555 35.293377 -1.599658 -1.325132 -24.416559 -0.506946 4.563164 -12.666863 1.551591 -0.044163 5.517928 0.084477 0.028752 1.692926 -0.785684 0.014543 -1.351152 -0.322808 -2.299304 -4.564895 -0.061860 -3.062526 15.335928 -0.147314 -1.508535 5.369748 0.000000 0.000000 0.000000 17.112112 -0.122776 -35.271909 26.982532 -38.162018 9.488485 14.641319 -11.610248 15.382258 0.000000 0.000000 0.000000 -7.125000 0.000000 0.000000 -8.743461 14.236686 -6.401167 0.000000 0.000000 0.000000 -6.546186 10.072974 22.200209 -17.466399 -27.468165 -4.300479 -7.191101 7.907720 18.324367 0.000000 0.000000 0.000000 7.125000 0.000000 0.000000 19.926029 47.402274 -1.227689
9.988027 27.462308 -10.835917 0.124239 6.266349 6.765951 0.000000 0.000000 0.000000 -10.221307 -11.501643 -16.836010 1.416976 7.524612 21.280971 -0.182626 -9.604719 -2.833340 0.439116 4.251111 11.784327 0.000000 0.000000 0.000000 19.640497 -0.478837 -24.365365 -3.779401 -11.860861 35.241606 -1.375125 -2.497107 -23.175506 -0.379139 3.951903 -10.941761 1.228560 -0.146232 6.022141 0.084352 -0.117875 1.866106 -0.594394 -0.058104 -1.457305 -0.271641 -2.331197 -4.499024 -0.168138 -3.093955 14.994355 -0.186964 -1.528957 5.249903 0.000000 0.000000 0.000000 16.984557 -0.719304 -36.356360 26.059283 -37.266500 8.923774 15.288948 -11.640668 15.373652 0.000000 0.000000 0.000000 -7.125000 0.000000 0.000000 -8.307475 14.188132 -6.083362 0.000000 0.000000 0.000000 -6.651574 9.302010 22.076050 -17.010832 -26.871940 -4.092246 -7.637613 8.716778 19.183564 0.000000 0.000000 0.000000 7.125000 0.000000 0.000000 19.879970 48.272818 -1.666434
10.006758 27.517494 -10.727010 0.194020 6.921323 6.702312 0.000000 0.000000 0.000000 -10.874385 -10.433999 -18.942162 2.012300 8.888258 25.448718 -0.374476 -11.718353 -0.631856 0.647258 5.143363 14.318624 0.000000 0.000000 0.000000 19.489203 -0.305233 -24.531372 -3.634277 -11.657050 34.529401 -1.115063 -3.895772 -21.704582 -0.226985 3.063348 -8.455441 1.336227 -0.329397 6.445219 0.165282 -0.346546 1.949168 -0.553475 -0.172591 -1.611828 -0.276606 -2.350745 -4.231350 -0.167353 -3.118665 14.674646 -0.181002 -1.542338 5.105546 0.000000 0.000000 0.000000 16.954241 -1.557544 -37.626543 25.004254 -36.207889 8.292565 14.540528 -10.996772 15.514289 0.000000 0.000000 0.000000 -7.125000 0.000000 0.000000 -8.812396 14.111676 -6.476518 0.000000 0.000000 0.000000 -6.591845 8.995006 21.923286 -16.920731 -26.753167 -4.051608 -7.980788 9.146296 19.843380 0.000000 0.000000 0.000000 7.125000 0.000000 0.000000 19.850966 48.943498 -2.002693
10.033048 27.578195 -10.614914 -0.109621 7.452811 6.808826 0.000000 0.000000 0.000000 -11.323113 -9.743606 -21.234388 2.885047 10.506396 30.632815 -0.576291 -13.617739 1.939022 1.257125 7.107531 20.034415 0.000000 0.000000 0.000000 19.680921 -0.073408 -24.945848 -3.460574 -11.405616 33.660443 -0.807677 -5.384227 -19.763329 -0.122093 2.252246 -6.203285 1.802421 -0.508925 6.711013 0.250319 -0.546940 1.903972 -0.709760 -0.274524 -1.813262 -0.227920 -2.328658 -3.920610 -0.079867 -3.104668 14.429637 -0.154910 -1.528608 4.977707 0.000000 0.000000 0.000000 17.010351 -2.465846 -38.680089 24.018104 -35.183322 7.716957 12.360297 -9.482293 15.555938 0.000000 0.000000 0.000000 -7.125000 0.000000 0.000000 -10.275480 14.251515 -7.554375 0.000000 0.000000 0.000000 -6.447196 9.033839 22.198706 -17.184746 -27.100775 -4.171142 -8.061403 8.692408 20.570779 0.000000 0.000000 0.000000 7.125000 0.000000 0.000000 20.102975 49.640169 -2.386000
10.061890 27.637710 -10.495227 -0.614704 7.595823 7.013965 0.000000 0.000000 0.000000 -11.771191 -8.914059 -23.410700 3.958061 12.101166 36.095492 -0.743362 -15.084124 4.709334 2.039076 8.944874 25.624535 0.000000 0.000000 0.000000 20.066317 0.086271 -25.459507 -3.235190 -11.066111 32.503444 -0.477064 -6.728911 -17.216057 -0.064469 1.636048 -4.500848 2.183053 -0.626245 6.829156 0.342276 -0.670841 1.840427 -0.817168 -0.338616 -1.950621 -0.123331 -2.218454 -3.680617 0.195958 -3.001865 14.214401 -0.076632 -1.457660 4.873406 0.000000 0.000000 0.000000 17.097687 -3.324907 -39.335136 23.264824 -34.377033 7.287389 9.213943 -7.525379 15.532014 0.000000 0.000000 0.000000 -7.125000 0.000000 0.000000 -12.378004 14.504343 -9.102216 0.000000 0.000000 0.000000 -6.343574 9.183754 22.992839 -17.714822 -27.790281 -4.415599 -7.804293 7.433182 21.108575 0.000000 0.000000 0.000000 7.125000 0.000000 0.000000 20.592595 50.105984 -2.692233
